# xmcd CD database file
#
# Track frame offsets:
#	150
#	14132
#	26881
#	47107
#	64070
#	79627
#	94079
#	112034
#	134792
#	151080
#	171917
#	188360
#	209851
#
# Disc length: 3346 seconds
#
# Revision: 0
# Processed by: cddbd v1.4PL0 Copyright (c) Steve Scherf et al.
# Submitted via: CDex 1.40Beta9
#
DISCID=ba0d100d
DTITLE=Leslie Braly and The Golden Mile - Songs from Shannon
DYEAR=2000
DGENRE=Country
TTITLE0=Faithful Are the Wounds of a Friend
TTITLE1=Dark Cloud
TTITLE2=I Cannot Make the Minutes Last
TTITLE3=Train Song
TTITLE4=Hattiesburg
TTITLE5=If You'll Be My Home
TTITLE6=House On Fire
TTITLE7=Long Way From Chicago
TTITLE8=Blue Skies
TTITLE9=Willing to Pay
TTITLE10=Until the Father Calls Us Home
TTITLE11=Shannon
TTITLE12=I Found You
EXTD=YEAR: 2000 ID3G: 2
EXTT0=
EXTT1=
EXTT2=
EXTT3=
EXTT4=
EXTT5=
EXTT6=
EXTT7=
EXTT8=
EXTT9=
EXTT10=
EXTT11=
EXTT12=
PLAYORDER=
